<svg xmlns="http://www.w3.org/2000/svg" width="128" height="128" viewBox="0 0 128 128">
  <defs>
    <linearGradient id="body" x1="0" y1="0" x2="0" y2="1">
      <stop offset="0" stop-color="#f0564a"/>
      <stop offset="1" stop-color="#b8261b"/>
    </linearGradient>
  </defs>

  <rect x="4" y="4" width="120" height="120" rx="26" fill="#15181b"/>
  <rect x="4" y="4" width="120" height="120" rx="26" fill="none" stroke="#2a2320" stroke-width="1.5"/>

  <!-- mouse body, generic top-down silhouette -->
  <path d="M 64 26
           C 84 26 96 38 96 58
           L 96 78
           C 96 96 82 106 64 106
           C 46 106 32 96 32 78
           L 32 58
           C 32 38 44 26 64 26 Z"
        fill="url(#body)"/>

  <path d="M 64 26 L 64 62" stroke="#3a0f0a" stroke-width="2.5" stroke-linecap="round"/>
  <rect x="59" y="32" width="10" height="20" rx="5" fill="#3a0f0a"/>

  <!-- angular accent notch, a nod to AJAZZ's sharp peaked logo mark -->
  <path d="M 64 12 L 74 26 L 54 26 Z" fill="#f0564a"/>
</svg>
